<?xml version="1.0" encoding="UTF-8" standalone="no"?> <!-- Created with Vectornator (http://vectornator.io/) --><!DOCTYPE svg PUBLIC "-//W3C//DTD SVG 1.1//EN" "http://www.w3.org/Graphics/SVG/1.1/DTD/svg11.dtd">
<svg height="100%" stroke-miterlimit="10" style="fill-rule:nonzero;clip-rule:evenodd;stroke-linecap:round;stroke-linejoin:round;" version="1.1" viewBox="0 0 906 510.5" width="100%" xml:space="preserve" xmlns="http://www.w3.org/2000/svg" xmlns:vectornator="http://vectornator.io" xmlns:xlink="http://www.w3.org/1999/xlink">
<metadata>
<vectornator:setting key="IsTimeLapseWatermarkDisabled" value="false"/>
<vectornator:setting key="UndoHistoryDisabled" value="true"/>
<vectornator:setting key="VNDimensionsVisible" value="true"/>
<vectornator:setting key="VNSnapToGuides" value="true"/>
<vectornator:setting key="WDCMYKEnabledKey" value="false"/>
<vectornator:setting key="WDDisplayWhiteBackground" value="false"/>
<vectornator:setting key="WDDynamicGuides" value="false"/>
<vectornator:setting key="WDGuidesVisible" value="true"/>
<vectornator:setting key="WDIsolateActiveLayer" value="false"/>
<vectornator:setting key="WDOutlineMode" value="false"/>
<vectornator:setting key="WDRulersVisible" value="true"/>
<vectornator:setting key="WDSnapToEdges" value="false"/>
<vectornator:setting key="WDSnapToGrid" value="false"/>
<vectornator:setting key="WDSnapToPoints" value="false"/>
<vectornator:setting key="WDUnits" value="Points"/>
</metadata>
<defs/>
<g id="Untitled" vectornator:layerName="Untitled">
<path d="M810.78 505.5C810.78 503.291 821.525 501.5 834.78 501.5C848.034 501.5 858.78 503.291 858.78 505.5C858.78 507.709 848.034 509.5 834.78 509.5C821.525 509.5 810.78 507.709 810.78 505.5Z" fill="#f2f2f2" fill-rule="evenodd" opacity="1" stroke="none"/>
<path d="M860.78 123.5L862.78 123.5L862.78 123.5L862.78 165.5L862.78 165.5L860.78 165.5L860.78 165.5L860.78 123.5L860.78 123.5Z" fill="#f2f2f2" fill-rule="evenodd" opacity="1" stroke="none"/>
<path d="M828.78 96.5L840.78 96.5L840.78 96.5L840.78 510.5L840.78 510.5L828.78 510.5L828.78 510.5L828.78 96.5L828.78 96.5Z" fill="#f2f2f2" fill-rule="evenodd" opacity="1" stroke="none"/>
<path d="M889.717 129L779.842 129C777.404 129 775.083 127.953 773.469 126.125C771.856 124.298 771.105 121.865 771.407 119.446L785.407 7.4458C785.945 3.19515 789.557 0.00605913 793.842-1.62136e-06L875.717-1.62136e-06C880.002 0.00605902 883.614 3.19515 884.152 7.4458L898.152 119.446C898.454 121.865 897.703 124.298 896.09 126.125C894.476 127.953 892.155 129 889.717 129Z" fill="#ffedae" fill-rule="evenodd" opacity="1" stroke="none"/>
<path d="M854.78 165.5C854.78 161.634 857.914 158.5 861.78 158.5C865.646 158.5 868.78 161.634 868.78 165.5C868.78 169.366 865.646 172.5 861.78 172.5C857.914 172.5 854.78 169.366 854.78 165.5Z" fill="#f2f2f2" fill-rule="evenodd" opacity="1" stroke="none"/>
<path d="M125.56 399.364C120.508 416.891 105.757 429.159 90.3689 439.581C88.2203 441.037 86.0711 442.459 83.9212 443.847C83.9066 443.854 83.8916 443.867 83.8769 443.874C83.7735 443.94 83.6698 444.007 83.5734 444.074C83.1297 444.36 82.6859 444.646 82.2458 444.929L82.4875 445.037C82.4875 445.037 82.7249 445.164 82.4652 445.058C82.3879 445.025 82.307 444.996 82.2298 444.964C73.2905 441.358 64.1925 437.487 57.3418 430.733C50.2353 423.72 46.0823 412.719 49.9304 403.505C50.4362 402.298 51.0751 401.152 51.8352 400.086C52.1474 399.64 52.4835 399.212 52.8336 398.793C57.1555 393.518 63.9888 390.988 70.7039 392.176C77.4191 393.364 82.9694 398.085 85.2192 404.522C86.3497 393.997 77.6704 385.18 69.3178 378.674C60.9616 372.172 51.4666 365.091 49.8511 354.624C48.9489 348.8 50.9741 343.156 54.6633 338.625C54.7775 338.487 54.8916 338.35 55.0092 338.216C59.5 332.939 65.8163 329.55 72.6964 328.727C85.5096 327.395 97.9557 334.178 107.264 343.087C122.246 357.42 131.303 379.437 125.56 399.364Z" fill="#00725f" fill-rule="evenodd" opacity="1" stroke="none"/>
<path d="M101.476 376.44C103.935 380.266 105.823 384.43 107.08 388.801C108.144 392.707 108.617 396.751 108.484 400.798C108.141 409.124 105.804 417.247 101.668 424.482C98.5529 429.971 94.7564 435.044 90.3688 439.581C88.2203 441.037 86.0711 442.459 83.9212 443.847C83.9066 443.854 83.8916 443.867 83.8768 443.874C83.7734 443.94 83.6698 444.007 83.5734 444.074C83.1297 444.36 82.6858 444.646 82.2458 444.929C82.2458 444.929 82.7248 445.164 82.4652 445.058C82.3879 445.025 82.3069 444.996 82.2298 444.964C83.8555 431.635 78.9167 418.345 68.9808 409.313C64.0724 404.929 58.1976 401.768 51.8352 400.087C52.1474 399.64 52.4835 399.212 52.8335 398.793C55.2908 399.482 57.6823 400.387 59.9802 401.497C68.1943 405.442 74.92 411.926 79.162 419.991C82.9686 427.313 84.6069 435.57 83.8845 443.792C84.2518 443.459 84.6195 443.119 84.9762 442.782C91.7691 436.449 97.8025 429.18 101.886 420.79C105.428 413.686 107.169 405.819 106.956 397.883C106.622 389.229 103.175 381.214 98.1827 374.237C92.7115 366.792 86.2482 360.131 78.9722 354.438C71.6396 348.565 63.6159 343.612 55.08 339.688C54.6802 339.501 54.4969 339.034 54.6633 338.625C54.7203 338.448 54.8446 338.302 55.0092 338.216C55.1809 338.142 55.3769 338.15 55.5417 338.239C56.5956 338.724 57.6421 339.216 58.6803 339.729C67.3275 344.003 75.4102 349.334 82.7428 355.601C89.8256 361.64 96.4937 368.539 101.476 376.44Z" fill="#ffffff" fill-rule="evenodd" opacity="1" stroke="none"/>
<path d="M52.6253 443.5L107.989 443.5C109.217 443.5 110.387 444.027 111.2 444.948C112.013 445.869 112.391 447.095 112.239 448.314L105.184 504.748C104.914 506.89 103.093 508.497 100.935 508.5L59.6795 508.5C57.5207 508.497 55.7004 506.89 55.4297 504.748L48.3754 448.314C48.223 447.095 48.6014 445.869 49.4144 444.948C50.2274 444.027 51.3968 443.5 52.6253 443.5Z" fill="#cccccc" fill-rule="evenodd" opacity="1" stroke="none"/>
<path d="M226.209 502.005C226.209 498.178 229.311 495.076 233.138 495.076C236.965 495.076 240.067 498.178 240.067 502.005C240.067 505.832 236.965 508.934 233.138 508.934C229.311 508.934 226.209 505.832 226.209 502.005Z" fill="#cccccc" fill-rule="evenodd" opacity="1" stroke="none"/>
<path d="M663.873 502.005C663.873 498.178 666.975 495.076 670.802 495.076C674.629 495.076 677.731 498.178 677.731 502.005C677.731 505.832 674.629 508.934 670.802 508.934C666.975 508.934 663.873 505.832 663.873 502.005Z" fill="#cccccc" fill-rule="evenodd" opacity="1" stroke="none"/>
<path d="M360.164 405.58L251.615 405.58C241.096 405.569 232.572 397.045 232.561 386.526L232.561 312.62C232.572 302.102 241.096 293.578 251.615 293.566L360.164 293.566C370.683 293.578 379.207 302.102 379.218 312.62L379.218 386.526C379.207 397.045 370.683 405.569 360.164 405.58Z" fill="#e6e6e6" fill-rule="evenodd" opacity="1" stroke="none"/>
<path d="M506.245 406.158L397.695 406.158C387.177 406.146 378.653 397.622 378.641 387.104L378.641 313.198C378.653 302.679 387.177 294.155 397.695 294.144L506.245 294.144C516.763 294.155 525.287 302.679 525.299 313.198L525.299 387.104C525.287 397.622 516.763 406.146 506.245 406.158Z" fill="#e6e6e6" fill-rule="evenodd" opacity="1" stroke="none"/>
<path d="M652.325 406.735L543.775 406.735C533.257 406.723 524.733 398.2 524.721 387.681L524.721 313.775C524.733 303.257 533.257 294.733 543.775 294.721L652.325 294.721C662.844 294.733 671.367 303.257 671.379 313.775L671.379 387.681C671.367 398.2 662.844 406.723 652.325 406.735Z" fill="#e6e6e6" fill-rule="evenodd" opacity="1" stroke="none"/>
<path d="M215.816 401.539L693.898 401.539L693.898 401.539L693.898 501.428L693.898 501.428L215.816 501.428L215.816 501.428L215.816 401.539L215.816 401.539Z" fill="#e6e6e6" fill-rule="evenodd" opacity="1" stroke="none"/>
<path d="M233.138 502.005L212.352 502.005C201.845 502.005 193.298 492.3 193.298 480.371L193.298 376.133L233.138 376.133L233.138 502.005Z" fill="#e6e6e6" fill-rule="evenodd" opacity="1" stroke="none"/>
<path d="M691.588 502.005L670.802 502.005L670.802 359.966L710.642 359.966L710.642 477.592C710.642 491.054 702.094 502.005 691.588 502.005Z" fill="#e6e6e6" fill-rule="evenodd" opacity="1" stroke="none"/>
<path d="M379.796 422.325L233.138 422.325L233.138 391.146C282.024 363.103 330.91 363.103 379.796 391.146L379.796 422.325Z" fill="#cccccc" fill-rule="evenodd" opacity="1" stroke="none"/>
<path d="M525.876 422.902L379.218 422.902L379.218 391.723C428.105 363.681 476.991 363.681 525.876 391.723L525.876 422.902Z" fill="#cccccc" fill-rule="evenodd" opacity="1" stroke="none"/>
<path d="M671.957 423.48L525.299 423.48L525.299 392.3C574.185 364.258 623.071 364.258 671.957 392.3L671.957 423.48Z" fill="#cccccc" fill-rule="evenodd" opacity="1" stroke="none"/>
<path d="M170.78 368.627C170.78 349.813 186.031 334.561 204.846 334.561C223.66 334.561 238.912 349.813 238.912 368.627C238.912 387.442 223.66 402.693 204.846 402.693C186.031 402.693 170.78 387.442 170.78 368.627Z" fill="#cccccc" fill-rule="evenodd" opacity="1" stroke="none"/>
<path d="M669.647 367.473C669.647 348.658 684.899 333.406 703.713 333.406C722.528 333.406 737.779 348.658 737.779 367.473C737.779 386.287 722.528 401.539 703.713 401.539C684.899 401.539 669.647 386.287 669.647 367.473Z" fill="#cccccc" fill-rule="evenodd" opacity="1" stroke="none"/>
<path d="M603.364 300.734C603.443 301.282 603.479 301.835 603.471 302.388L644.305 330.532L655.194 325.377L665.122 340.794L646.731 351.794C643.68 353.619 639.789 353.211 637.183 350.792L595.828 312.409C591.627 313.592 587.132 312.051 584.54 308.54C581.948 305.028 581.798 300.279 584.165 296.612C586.532 292.945 590.921 291.125 595.188 292.041C599.456 292.958 602.711 296.419 603.364 300.734Z" fill="#ffb8b8" fill-rule="evenodd" opacity="1" stroke="none"/>
<path d="M645.092 328.11C645.455 326.853 646.348 325.817 647.538 325.272L668.071 315.864C673.844 312.106 681.569 313.727 685.344 319.49C689.118 325.252 687.518 332.982 681.766 336.773L664.792 351.782C663.812 352.649 662.503 353.046 661.206 352.87C659.909 352.694 658.754 351.962 658.04 350.866L645.642 331.817C644.928 330.721 644.727 329.367 645.092 328.11Z" fill="#9d78f5" fill-rule="evenodd" opacity="1" stroke="none"/>
<path d="M602.849 302.569L602.644 302.583L602.084 294.838C601.904 292.363 600.303 290.461 598.507 290.591L598.507 290.591L586.6 291.452C584.804 291.582 581.498 293.839 581.677 296.315L581.822 298.31L584.752 338.805C584.931 341.281 588.527 343.038 590.324 342.908L590.324 342.908L602.23 342.047C604.026 341.917 605.337 339.805 605.158 337.329L605.158 337.329L603.043 308.097L603.248 308.082L602.849 302.569Z" fill="#3f3d56" fill-rule="evenodd" opacity="1" stroke="none"/>
<path d="M601.393 294.92L604.463 337.348C604.597 339.197 603.618 340.774 602.277 340.871L590.313 341.737C588.972 341.834 587.776 340.414 587.642 338.565L584.572 296.137C584.438 294.288 585.417 292.71 586.759 292.613L588.21 292.508C588.004 293.283 588.321 294.102 588.994 294.536C589.132 294.602 589.285 294.632 589.437 294.622L596.258 294.128C596.896 294.082 597.361 293.331 597.297 292.452C597.282 292.25 597.239 292.05 597.168 291.86L598.722 291.748C600.064 291.651 601.26 293.071 601.393 294.92Z" fill="#ffffff" fill-rule="evenodd" opacity="1" stroke="none"/>
<path d="M433.561 392.89L429.615 381.283L472.509 360.539L478.333 377.671L433.561 392.89Z" fill="#ffb8b8" fill-rule="evenodd" opacity="1" stroke="none"/>
<path d="M423.316 399.676L410.593 362.249L411.066 362.088C419.112 359.352 427.851 363.657 430.586 371.703L430.587 371.704L438.357 394.563L423.316 399.676Z" fill="#2f2e41" fill-rule="evenodd" opacity="1" stroke="none"/>
<path d="M603.803 401.174C594.603 401.691 585.43 399.77 577.21 395.607L526.771 361.294L467.876 383.102C464.633 384.206 461.088 382.61 459.763 379.45L456.877 372.507C455.507 369.258 456.993 365.511 460.216 364.083L516.483 338.814C523.239 335.792 530.816 335.136 537.991 336.954L616.103 356.859L636.75 381.38L636.521 381.696C626.385 395.68 614.362 400.41 603.803 401.174Z" fill="#2f2e41" fill-rule="evenodd" opacity="1" stroke="none"/>
<path d="M643.036 274.152C643.036 260.588 654.032 249.591 667.597 249.591C681.162 249.591 692.158 260.588 692.158 274.152C692.158 287.717 681.162 298.713 667.597 298.713C654.032 298.713 643.036 287.717 643.036 274.152Z" fill="#ffb8b8" fill-rule="evenodd" opacity="1" stroke="none"/>
<path d="M642.385 392.312L602.856 362.895L629.814 343.735C629.043 341.254 625.622 327.065 644.33 317.394C650.252 314.333 654.518 311.698 657.011 309.563C660.548 306.512 665.078 304.859 669.749 304.916C675.718 305.011 681.295 307.91 684.802 312.741C688.309 317.572 689.338 323.772 687.58 329.477C683.679 342.157 677.465 358.959 670.015 366.995C661.587 376.074 652.448 384.465 642.684 392.088L642.385 392.312Z" fill="#9d78f5" fill-rule="evenodd" opacity="1" stroke="none"/>
<path d="M439.829 403.176L435.883 391.568L478.777 370.825L484.601 387.956L439.829 403.176Z" fill="#ffb8b8" fill-rule="evenodd" opacity="1" stroke="none"/>
<path d="M429.584 409.961L416.861 372.534L417.334 372.373C425.379 369.638 434.119 373.943 436.854 381.988L436.854 381.989L444.625 404.848L429.584 409.961Z" fill="#2f2e41" fill-rule="evenodd" opacity="1" stroke="none"/>
<path d="M610.07 411.46C600.871 411.976 591.698 410.056 583.478 405.892L533.039 371.579L474.144 393.388C470.9 394.491 467.356 392.896 466.031 389.736L463.145 382.793C461.775 379.544 463.261 375.796 466.484 374.368L522.751 349.1C529.507 346.077 537.084 345.422 544.259 347.24L622.371 367.145L643.018 391.665L642.789 391.981C632.653 405.966 620.63 410.696 610.07 411.46Z" fill="#2f2e41" fill-rule="evenodd" opacity="1" stroke="none"/>
<path d="M598.733 330.197C599.039 330.658 599.309 331.143 599.538 331.646L648.49 339.597L656.124 330.276L671.697 339.958L659.786 357.772C657.81 360.728 654.119 362.025 650.728 360.955L596.922 343.974C593.632 346.842 588.91 347.374 585.064 345.31C581.218 343.247 579.05 339.019 579.619 334.692C580.188 330.365 583.375 326.841 587.623 325.842C591.872 324.843 596.296 326.577 598.733 330.197Z" fill="#ffb8b8" fill-rule="evenodd" opacity="1" stroke="none"/>
<path d="M648.164 337.071C647.955 335.78 648.318 334.461 649.16 333.459L663.688 316.166C667.295 310.298 674.971 308.455 680.85 312.047C686.728 315.638 688.591 323.309 685.016 329.197L676.103 350.029C675.588 351.232 674.575 352.151 673.328 352.547C672.081 352.943 670.723 352.777 669.608 352.092L650.249 340.185C649.134 339.5 648.373 338.363 648.164 337.071Z" fill="#9d78f5" fill-rule="evenodd" opacity="1" stroke="none"/>
<path d="M661.031 301.202C668.167 292.02 672.125 280.766 672.307 269.138C668.947 271.634 665.145 273.471 661.101 274.55C656.809 275.693 652.091 275.923 648.049 274.082C642.361 271.491 638.996 264.882 639.642 258.665C640.287 252.447 644.584 246.893 650.179 244.105C655.906 241.427 662.438 241.031 668.446 242.999C674.938 237.47 684.065 236.252 691.78 239.885C700.474 244.152 705.282 254.033 706.116 263.681C706.949 273.33 704.471 282.923 702.013 292.29L701.735 293.349C700.97 296.265 698.746 301.86 698.746 301.86C698.746 301.86 685.83 299.312 680.699 297.678C673.261 300.366 661.031 301.202 661.031 301.202Z" fill="#2f2e41" fill-rule="evenodd" opacity="1" stroke="none"/>
<path d="M599.463 303.556L588.939 304.317C588.388 304.357 587.909 303.943 587.869 303.392C587.83 302.841 588.244 302.362 588.795 302.322L599.318 301.561C599.675 301.534 600.019 301.7 600.22 301.996C600.421 302.292 600.449 302.673 600.292 302.995C600.136 303.317 599.82 303.531 599.463 303.556Z" fill="#3f3d56" fill-rule="evenodd" opacity="1" stroke="none"/>
<path d="M599.824 308.543L589.3 309.304C588.943 309.331 588.599 309.165 588.398 308.869C588.197 308.573 588.17 308.192 588.326 307.87C588.482 307.548 588.799 307.334 589.156 307.309L599.679 306.548C600.23 306.508 600.709 306.922 600.749 307.473C600.789 308.024 600.374 308.503 599.824 308.543Z" fill="#3f3d56" fill-rule="evenodd" opacity="1" stroke="none"/>
<path d="M600.184 313.53L589.661 314.291C589.111 314.33 588.633 313.916 588.593 313.366C588.554 312.816 588.966 312.337 589.516 312.296L600.04 311.535C600.591 311.495 601.07 311.909 601.11 312.46C601.15 313.011 600.735 313.49 600.184 313.53Z" fill="#3f3d56" fill-rule="evenodd" opacity="1" stroke="none"/>
<path d="M905 510.5L1 510.5C0.447715 510.5 8.33927e-08 510.052 0 509.5C-1.19209e-07 508.948 0.447715 508.5 1 508.5L905 508.5C905.552 508.5 906 508.948 906 509.5C906 510.052 905.552 510.5 905 510.5Z" fill="#3f3d56" fill-rule="evenodd" opacity="1" stroke="none"/>
<path d="M480.78 177.5L379.78 177.5C374.811 177.494 370.785 173.468 370.78 168.5L370.78 81.5C370.785 76.5318 374.811 72.5057 379.78 72.5L480.78 72.5C485.748 72.5057 489.774 76.5318 489.78 81.5L489.78 168.5C489.774 173.468 485.748 177.494 480.78 177.5ZM379.78 74.5C375.915 74.5043 372.784 77.6358 372.78 81.5L372.78 168.5C372.784 172.364 375.915 175.496 379.78 175.5L480.78 175.5C484.644 175.496 487.775 172.364 487.78 168.5L487.78 81.5C487.775 77.6358 484.644 74.5043 480.78 74.5L379.78 74.5Z" fill="#f2f2f2" fill-rule="evenodd" opacity="1" stroke="none"/>
<path d="M466.013 164L394.547 164C389.854 163.995 386.052 160.192 386.047 155.5L386.047 94.5C386.052 89.8078 389.854 86.0053 394.547 86L466.013 86C470.705 86.0053 474.507 89.8078 474.513 94.5L474.513 155.5C474.507 160.192 470.705 163.995 466.013 164Z" fill="#e6e6e6" fill-rule="evenodd" opacity="1" stroke="none"/>
<path d="M425.78 54.5C425.78 51.7386 428.018 49.5 430.78 49.5C433.541 49.5 435.78 51.7386 435.78 54.5C435.78 57.2614 433.541 59.5 430.78 59.5C428.018 59.5 425.78 57.2614 425.78 54.5Z" fill="#f2f2f2" fill-rule="evenodd" opacity="1" stroke="none"/>
<path d="M441.292 74.014L430.782 56.451L420.332 74.011L418.613 72.989L430.777 52.549L443.008 72.986L441.292 74.014Z" fill="#f2f2f2" fill-rule="evenodd" opacity="1" stroke="none"/>
<path d="M442.28 118C442.277 116.487 442.111 114.978 441.784 113.5L426.78 113.5C424.57 113.5 422.78 115.291 422.78 117.5L422.78 138.924C433.762 138.145 442.275 129.01 442.28 118Z" fill="#9d78f5" fill-rule="evenodd" opacity="1" stroke="none"/>
<path d="M421.28 140C409.742 140.004 400.161 131.095 399.329 119.587C398.497 108.08 406.695 97.8843 418.113 96.2279C429.531 94.5715 440.289 102.017 442.761 113.287L443.026 114.5L426.78 114.5C425.123 114.502 423.781 115.844 423.78 117.5L423.78 139.856L422.677 139.934C422.214 139.968 421.751 140 421.28 140ZM421.28 98C410.234 98 401.28 106.954 401.28 118C401.28 129.046 410.234 138 421.28 138C421.447 138 421.614 137.995 421.78 137.987L421.78 117.5C421.783 114.74 424.019 112.503 426.78 112.5L440.501 112.5C438.013 103.942 430.191 98.0417 421.28 98Z" fill="#ffffff" fill-rule="evenodd" opacity="1" stroke="none"/>
<path d="M450.78 146.5L426.78 146.5C424.019 146.497 421.783 144.26 421.78 141.5L421.78 137.993L422.709 137.927C428.502 137.527 433.833 134.622 437.31 129.97C440.787 125.319 442.064 119.383 440.807 113.714L440.542 112.5L450.78 112.5C453.54 112.503 455.776 114.74 455.78 117.5L455.78 141.5C455.776 144.26 453.54 146.497 450.78 146.5ZM423.78 139.836L423.78 141.5C423.781 143.156 425.123 144.498 426.78 144.5L450.78 144.5C452.436 144.498 453.778 143.156 453.78 141.5L453.78 117.5C453.778 115.844 452.436 114.502 450.78 114.5L442.992 114.5C443.182 115.657 443.278 116.828 443.28 118C443.241 129.164 434.869 138.54 423.78 139.836Z" fill="#ffffff" fill-rule="evenodd" opacity="1" stroke="none"/>
</g>
</svg>
