<svg id="Layer_1" data-name="Layer 1" xmlns="http://www.w3.org/2000/svg" viewBox="0 0 426.26 453.95"><defs><style>.cls-1{fill:#22125a;}</style></defs><path class="cls-1" d="M357.27,454H69A69,69,0,0,1,0,385V221.59a10.52,10.52,0,0,1,10.53-10.53h0a10.53,10.53,0,0,1,10.53,10.53V385A47.93,47.93,0,0,0,69,432.9H357.27A47.94,47.94,0,0,0,405.21,385V221.59H141.68a10.53,10.53,0,0,1-10.53-10.53h0a10.52,10.52,0,0,1,10.53-10.53H426.26V385A69,69,0,0,1,357.27,454Z"/><path class="cls-1" d="M415.74,176H0V114.73a69,69,0,0,1,69-69H357.27a69.11,69.11,0,0,1,67.86,56.49,10.55,10.55,0,0,1-10.35,12.5h0a10.48,10.48,0,0,1-10.34-8.59,48,48,0,0,0-47.17-39.35H69a47.94,47.94,0,0,0-47.93,47.94v40.2H415.74a10.53,10.53,0,0,1,10.52,10.53h0A10.53,10.53,0,0,1,415.74,176Z"/><rect class="cls-1" x="202.6" width="21.06" height="104.82" rx="10.53"/><rect class="cls-1" x="120.62" width="21.06" height="104.82" rx="10.53"/><rect class="cls-1" x="284.59" width="21.06" height="104.82" rx="10.53"/><rect class="cls-1" x="129.9" y="255.68" width="35.85" height="35.85"/><rect class="cls-1" x="193.73" y="255.68" width="35.85" height="35.85"/><rect class="cls-1" x="257.56" y="255.68" width="35.85" height="35.85"/><rect class="cls-1" x="321.39" y="255.68" width="35.85" height="35.85"/><rect class="cls-1" x="130.05" y="310.53" width="35.85" height="35.85"/><rect class="cls-1" x="66.37" y="310.53" width="35.85" height="35.85"/><polygon class="cls-1" points="205.99 318.08 199.96 324.16 204.59 328.75 212 336.11 212.41 336.52 229.57 322.76 229.57 346.37 193.73 346.37 193.73 310.53 229.57 310.53 229.57 311.8 213.02 325.07 205.99 318.08"/><rect class="cls-1" x="257.56" y="310.53" width="35.85" height="35.85"/><rect class="cls-1" x="321.39" y="310.53" width="35.85" height="35.85"/><rect class="cls-1" x="130.05" y="366.9" width="35.85" height="35.85"/><rect class="cls-1" x="66.37" y="366.9" width="35.85" height="35.85"/><rect class="cls-1" x="193.73" y="366.9" width="35.85" height="35.85"/><rect class="cls-1" x="257.56" y="366.9" width="35.85" height="35.85"/><rect class="cls-1" x="321.39" y="366.9" width="35.85" height="35.85"/><path class="cls-1" d="M253.26,315.3l-22.67,18.17-1,.81-15.09,12.09h-6L195,332.92l4.13-4.17,9.85,9.79,3-2.43,18.59-14.9,16.69-13.38a4.78,4.78,0,0,1,6,7.47Z"/></svg>