<?xml version="1.0" standalone="no"?>
<!DOCTYPE svg PUBLIC "-//W3C//DTD SVG 20010904//EN"
 "http://www.w3.org/TR/2001/REC-SVG-20010904/DTD/svg10.dtd">
<svg version="1.0" xmlns="http://www.w3.org/2000/svg"
 width="908.000000pt" height="908.000000pt" viewBox="0 0 908.000000 908.000000"
 preserveAspectRatio="xMidYMid meet">
<metadata>
Created by potrace 1.14, written by Peter Selinger 2001-2017
</metadata>
<g transform="translate(0.000000,908.000000) scale(0.100000,-0.100000)"
fill="#000000" stroke="none">
<path d="M2813 9060 c-50 -24 -100 -82 -113 -132 -7 -22 -9 -179 -8 -397 2
-199 1 -362 -2 -362 -3 -1 -259 -2 -570 -4 -509 -1 -617 -5 -700 -21 -14 -2
-34 -6 -45 -8 -42 -8 -142 -37 -180 -51 -22 -9 -49 -19 -60 -22 -32 -10 -186
-93 -235 -126 -108 -73 -191 -147 -285 -251 -41 -45 -91 -116 -151 -211 -67
-109 -140 -313 -170 -480 -4 -22 -9 -354 -11 -737 l-4 -698 108 0 c59 0 1938
-1 4174 -1 3774 0 4069 1 4108 17 41 16 117 91 119 116 0 7 4 36 7 64 12 88
-42 176 -128 209 -34 12 -98 16 -345 18 -166 1 -302 -2 -302 -6 0 -5 -4 -5
-10 -2 -15 9 -470 11 -470 2 0 -5 -4 -5 -10 -2 -15 9 -470 11 -470 2 0 -5 -4
-5 -10 -2 -15 9 -470 11 -470 2 0 -5 -4 -5 -10 -2 -15 9 -230 11 -230 2 0 -5
-5 -5 -10 -2 -16 10 -150 11 -150 2 0 -5 -5 -5 -10 -2 -16 10 -150 11 -150 2
0 -5 -5 -5 -10 -2 -16 10 -150 11 -150 2 0 -5 -4 -5 -10 -2 -15 9 -230 11
-230 2 0 -5 -4 -5 -10 -2 -15 9 -470 11 -470 2 0 -5 -4 -5 -10 -2 -15 9 -470
11 -470 2 0 -5 -4 -5 -10 -2 -15 9 -230 11 -230 2 0 -5 -5 -5 -10 -2 -16 10
-150 11 -150 2 0 -5 -5 -5 -10 -2 -16 10 -150 11 -150 2 0 -5 -5 -5 -10 -2
-16 10 -150 11 -150 2 0 -5 -4 -5 -10 -2 -15 9 -230 11 -230 2 0 -5 -4 -5 -10
-2 -15 9 -470 11 -470 2 0 -5 -4 -5 -10 -2 -15 9 -470 11 -470 2 0 -5 -4 -5
-10 -2 -15 9 -470 11 -470 2 0 -5 -4 -5 -10 -2 -15 9 -630 11 -630 2 0 -5 -4
-5 -10 -2 -15 9 -630 11 -630 2 0 -5 -5 -5 -10 -2 -6 4 -69 6 -140 6 l-129 0
3 462 c2 254 6 482 10 506 12 72 56 202 94 276 20 39 39 72 42 75 3 3 18 24
34 48 36 53 150 172 165 172 6 0 11 4 11 9 0 10 96 74 166 111 52 28 184 74
239 84 17 3 46 9 65 12 19 4 288 7 598 8 l562 1 1 -295 c0 -200 4 -305 12
-326 18 -49 48 -83 96 -112 116 -68 279 3 307 133 2 11 5 151 5 310 l1 290
601 -1 c331 -1 605 -2 609 -3 4 0 8 -140 10 -310 l3 -309 30 -44 c88 -124 265
-123 350 2 l30 45 3 305 c2 167 7 307 12 310 7 4 1177 6 1202 1 4 0 7 -128 7
-284 -1 -314 4 -351 54 -402 54 -54 85 -67 164 -67 86 -1 162 55 191 141 8 23
12 129 12 325 l0 291 558 -1 c306 0 577 -4 602 -9 25 -5 50 -9 55 -10 80 -7
296 -95 317 -129 4 -6 8 -7 8 -2 0 7 24 -9 94 -64 11 -8 48 -43 82 -77 116
-118 203 -275 243 -438 29 -117 58 -166 118 -200 59 -33 108 -37 173 -15 61
21 113 75 130 136 11 38 7 145 -6 166 -3 4 -7 18 -9 30 -8 40 -45 146 -71 206
-14 31 -25 58 -24 60 1 7 -109 177 -156 238 -44 59 -163 179 -228 232 -102 82
-336 210 -417 226 -8 2 -21 5 -29 8 -169 57 -199 60 -875 62 l-560 1 -5 385
c-5 374 -6 386 -27 420 -41 67 -93 100 -168 107 -107 10 -207 -67 -221 -169
-3 -24 -7 -200 -7 -393 l-2 -350 -598 0 c-329 0 -603 2 -608 5 -5 3 -9 170 -9
374 -1 383 -4 411 -45 452 -8 9 -15 19 -15 23 0 20 -88 55 -142 57 -64 3 -105
-12 -151 -55 -62 -57 -62 -50 -67 -471 l-5 -385 -595 -1 c-327 0 -600 2 -607
4 -9 3 -12 99 -11 377 0 220 -4 380 -10 391 -5 11 -15 30 -21 44 -13 27 -81
82 -108 87 -72 14 -120 12 -160 -7z"/>
<path d="M3055 5061 c-37 -12 -80 -39 -102 -64 -49 -57 -64 -167 -31 -232 27
-52 91 -101 147 -112 14 -3 1215 -5 2668 -6 l2643 0 -1 -151 c0 -83 1 -155 2
-161 1 -5 1 -14 -1 -20 -2 -11 -2 -206 1 -220 1 -5 1 -14 -1 -20 -2 -11 -2
-206 1 -220 1 -5 1 -14 -1 -20 -2 -11 -2 -206 1 -220 1 -5 1 -14 -1 -20 -2
-11 -2 -206 1 -220 1 -5 1 -14 -1 -20 -2 -11 -2 -206 1 -220 1 -5 1 -14 -1
-20 -2 -11 -2 -206 1 -220 1 -5 1 -14 0 -19 -2 -11 -2 -287 0 -301 1 -5 1 -14
-1 -20 -2 -11 -2 -206 1 -220 1 -5 1 -14 -1 -20 -2 -11 -2 -206 1 -220 1 -5 1
-14 -1 -20 -2 -11 -2 -206 1 -220 1 -5 1 -14 -1 -20 -4 -22 -1 -217 3 -222 3
-3 4 -10 1 -16 -2 -7 -6 -88 -8 -182 -4 -147 -7 -191 -16 -215 -1 -3 -2 -9 -1
-13 6 -34 -65 -211 -124 -312 -82 -139 -234 -276 -394 -356 -52 -25 -168 -71
-178 -69 -2 0 -4 0 -5 -1 -13 -4 -48 -10 -68 -12 -14 -2 -30 -5 -35 -9 -15 -9
-5963 -7 -6025 3 -69 10 -110 19 -190 44 -47 15 -190 88 -190 97 0 5 -5 8 -11
8 -16 0 -77 48 -151 119 -117 112 -212 275 -254 435 -9 34 -19 70 -22 81 -3
11 -7 792 -8 1736 -2 1256 -6 1728 -14 1760 -13 48 -70 112 -115 129 -109 42
-228 -3 -275 -103 -19 -41 -19 -71 -17 -1782 2 -957 6 -1753 9 -1770 4 -16 9
-43 12 -60 18 -95 45 -189 75 -260 141 -333 375 -581 691 -732 96 -46 258
-100 322 -108 24 -3 63 -9 88 -15 54 -11 6094 -8 6155 4 127 24 322 84 375
116 8 5 38 21 65 36 316 169 558 464 665 810 20 65 25 86 36 153 3 18 9 43 12
55 4 11 8 891 9 1954 l3 1932 -2862 -1 c-1575 -1 -2872 -4 -2883 -8z"/>
<path d="M2882 3961 c-8 -7 -9 -697 0 -706 7 -8 697 -9 705 -1 5 4 8 652 4
701 -1 11 -694 16 -709 6z"/>
<path d="M4155 3956 c-2 -6 -3 -168 -2 -359 l2 -348 325 0 c179 0 340 0 358 1
l32 0 -2 358 -3 357 -354 1 c-239 0 -354 -3 -356 -10z"/>
<path d="M5434 3963 c-9 -3 -10 -701 0 -710 6 -6 693 -6 703 0 6 4 10 681 4
707 -1 6 -690 9 -707 3z"/>
<path d="M6708 3961 c-1 -4 -2 -165 -2 -358 l-1 -353 30 -1 c31 0 650 0 673 1
9 0 12 78 12 358 l0 358 -355 0 c-195 0 -356 -2 -357 -5z"/>
<path d="M5217 2916 c-25 -17 -62 -46 -82 -63 -20 -18 -41 -33 -45 -33 -5 0
-10 -3 -12 -8 -1 -4 -61 -54 -133 -111 -71 -57 -140 -111 -151 -121 -12 -10
-62 -50 -110 -89 -49 -39 -106 -85 -128 -102 l-38 -32 -120 120 -120 121 60
60 60 60 68 -69 c74 -75 71 -74 132 -24 9 8 35 29 58 47 22 18 57 47 78 63 22
17 44 35 50 40 6 6 28 23 49 39 72 55 71 55 -322 55 l-359 0 0 -359 0 -359
358 0 358 1 1 121 c0 93 4 124 15 132 7 6 31 25 52 42 22 17 55 44 74 60 20
15 42 34 50 41 8 7 69 55 135 108 66 53 133 106 149 120 24 19 29 31 30 68 1
54 -22 83 -76 95 -30 7 -41 4 -81 -23z"/>
<path d="M1609 2847 c-3 -85 -4 -674 -1 -684 3 -9 92 -12 360 -12 l357 1 0
351 c0 228 -3 355 -10 359 -5 4 -166 8 -357 8 l-348 -1 -1 -22z"/>
<path d="M2881 2852 c1 -9 0 -19 -1 -22 -6 -16 -4 -60 3 -60 4 0 3 -8 -2 -18
-5 -10 -6 -24 -1 -32 4 -7 6 -19 3 -26 -6 -18 -9 -144 -3 -144 3 0 5 -16 5
-35 0 -19 -2 -35 -5 -35 -3 0 -5 -11 -5 -25 0 -14 3 -25 7 -25 4 0 3 -13 -2
-30 -5 -19 -5 -30 1 -30 6 0 6 -6 0 -18 -6 -11 -6 -24 0 -34 6 -10 6 -19 0
-23 -7 -4 -7 -15 -1 -30 5 -14 6 -25 2 -25 -9 0 -7 -64 2 -79 7 -11 705 -15
707 -3 1 4 2 166 3 359 l2 353 -359 0 c-334 0 -358 -1 -356 -18z"/>
<path d="M5429 2813 c0 -59 0 -349 1 -550 l0 -112 357 2 358 2 1 345 c0 190
-2 351 -4 358 -3 9 -84 12 -358 12 l-354 0 -1 -57z"/>
<path d="M6707 2862 c-3 -4 -4 -164 -3 -357 l1 -350 358 -2 357 -1 0 359 0
359 -355 0 c-195 0 -356 -4 -358 -8z"/>
<path d="M1618 1738 c-7 -4 -11 -124 -12 -360 l0 -353 359 0 359 0 1 358 0
357 -220 0 c-121 0 -278 2 -348 3 -71 1 -134 -1 -139 -5z"/>
<path d="M3049 1742 c-167 -2 -167 -2 -171 -26 -3 -13 -1 -31 4 -39 5 -9 4
-18 -1 -22 -7 -4 -7 -15 -1 -30 6 -15 6 -25 0 -25 -5 0 -5 -12 0 -30 5 -16 6
-30 2 -30 -4 0 -7 -11 -7 -25 0 -14 4 -25 8 -25 4 0 3 -8 -2 -19 -6 -10 -8
-21 -5 -24 8 -8 11 -77 4 -77 -8 0 -4 -55 5 -69 3 -6 2 -11 -2 -11 -10 0 -9
-53 2 -69 3 -6 2 -11 -2 -11 -10 0 -9 -53 2 -69 3 -6 3 -11 -2 -11 -7 0 -8
-46 -4 -95 1 -7 122 -10 359 -10 l357 0 1 354 c0 272 -3 354 -12 358 -16 6
-316 9 -535 5z"/>
<path d="M4244 1742 l-92 -3 2 -357 1 -357 357 0 357 -1 0 358 1 358 -143 0
c-78 0 -198 2 -267 3 -69 1 -166 1 -216 -1z"/>
<path d="M5523 1742 l-93 -3 -1 -37 c0 -28 0 -555 1 -662 0 -14 42 -15 353
-14 193 1 354 2 357 3 3 0 5 160 5 353 0 306 -2 353 -15 355 -23 5 -504 8
-607 5z"/>
<path d="M6717 1738 c-9 -5 -12 -105 -12 -360 l0 -353 352 0 c193 0 354 3 358
6 6 7 8 699 2 705 -7 7 -690 9 -700 2z"/>
</g>
</svg>
