<?xml version="1.0" standalone="no"?>
<!DOCTYPE svg PUBLIC "-//W3C//DTD SVG 20010904//EN"
 "http://www.w3.org/TR/2001/REC-SVG-20010904/DTD/svg10.dtd">
<svg version="1.0" xmlns="http://www.w3.org/2000/svg"
 width="908.000000pt" height="908.000000pt" viewBox="0 0 908.000000 908.000000"
 preserveAspectRatio="xMidYMid meet">
<metadata>
Created by potrace 1.14, written by Peter Selinger 2001-2017
</metadata>
<g transform="translate(0.000000,908.000000) scale(0.100000,-0.100000)"
fill="#000000" stroke="none">
<path d="M2826 9065 c-46 -16 -89 -55 -113 -104 -16 -32 -19 -77 -23 -416 l-5
-380 -625 -6 -625 -5 -100 -26 c-269 -71 -494 -203 -678 -398 -145 -154 -239
-312 -307 -519 -66 -198 -70 -252 -70 -996 l0 -655 4168 0 c3021 0 4178 3
4207 11 23 7 57 28 81 53 105 105 75 274 -61 337 -39 18 -167 19 -4007 19
l-3968 0 0 429 c0 254 4 461 11 508 56 404 367 731 767 809 58 11 193 14 643
14 l569 0 0 -294 0 -294 28 -53 c75 -143 263 -154 357 -21 l30 44 3 309 3 309
609 0 610 0 0 -289 c0 -303 3 -330 47 -389 75 -101 251 -101 326 0 44 59 47
86 47 389 l0 289 610 0 609 0 3 -309 3 -309 30 -44 c94 -133 282 -122 357 21
l28 53 0 294 0 294 569 0 c450 0 585 -3 643 -14 380 -74 678 -369 758 -753 26
-123 107 -189 224 -181 86 5 134 37 171 113 24 49 27 64 22 118 -11 118 -104
365 -185 491 -201 314 -487 518 -866 618 -77 21 -109 22 -706 27 l-625 6 -5
385 c-5 380 -5 385 -28 422 -75 121 -226 144 -325 50 -63 -59 -62 -52 -67
-472 l-5 -385 -605 0 -605 0 -5 385 c-5 420 -4 413 -67 472 -100 95 -262 68
-331 -57 -15 -26 -18 -81 -22 -415 l-5 -385 -605 0 -605 0 -5 385 c-5 420 -4
413 -67 472 -58 55 -138 71 -217 43z"/>
<path d="M3025 5046 c-59 -27 -77 -46 -104 -106 -25 -54 -26 -93 -6 -151 19
-54 58 -96 110 -120 39 -18 132 -19 2698 -19 l2657 0 -2 -1712 -3 -1713 -28
-93 c-28 -98 -86 -222 -139 -300 -17 -26 -72 -87 -123 -137 -126 -124 -257
-198 -435 -247 l-85 -23 -3025 0 -3025 0 -97 27 c-338 95 -586 340 -685 680
l-28 93 -5 1745 -5 1745 -23 38 c-74 119 -230 139 -327 43 -26 -27 -46 -58
-53 -86 -10 -35 -12 -429 -10 -1780 l4 -1735 22 -97 c69 -302 221 -562 437
-750 188 -164 379 -260 645 -324 71 -18 220 -19 3100 -21 3354 -4 3126 -8
3347 62 441 140 791 502 913 946 51 189 50 132 50 2167 l0 1892 -2862 0 -2863
0 -50 -24z"/>
<path d="M2880 3610 l0 -360 355 0 355 0 0 360 0 360 -355 0 -355 0 0 -360z"/>
<path d="M4157 3963 c-4 -3 -7 -165 -7 -360 l0 -353 360 0 360 0 -2 358 -3
357 -351 3 c-193 1 -353 -1 -357 -5z"/>
<path d="M5430 3610 l0 -360 353 0 c195 0 356 2 358 4 2 2 3 164 1 360 l-2
356 -355 0 -355 0 0 -360z"/>
<path d="M6707 3963 c-4 -3 -7 -165 -7 -360 l0 -353 360 0 360 0 -2 358 -3
357 -351 3 c-193 1 -353 -1 -357 -5z"/>
<path d="M4881 2649 l-364 -291 -118 118 -118 118 52 55 c28 31 56 58 61 60 4
2 39 -27 76 -64 l68 -67 166 133 c91 73 166 139 166 146 0 10 -70 13 -360 13
l-360 0 2 -357 3 -358 358 -3 357 -2 0 122 0 123 206 165 c271 216 291 235
299 269 7 34 -15 85 -44 101 -11 5 -35 10 -53 10 -28 0 -85 -41 -397 -291z"/>
<path d="M1610 2510 l0 -360 355 0 355 0 0 360 0 360 -355 0 -355 0 0 -360z"/>
<path d="M2880 2510 l0 -360 358 2 357 3 0 355 0 355 -357 3 -358 2 0 -360z"/>
<path d="M5430 2510 l0 -360 353 0 c195 0 356 2 358 4 2 2 3 164 1 360 l-2
356 -355 0 -355 0 0 -360z"/>
<path d="M6705 2857 c-3 -6 -4 -167 -3 -357 l3 -345 358 -3 357 -2 0 360 0
360 -355 0 c-276 0 -357 -3 -360 -13z"/>
<path d="M1610 1380 l0 -360 355 0 355 0 0 360 0 360 -355 0 -355 0 0 -360z"/>
<path d="M2882 1383 l3 -358 355 0 355 0 3 358 2 357 -360 0 -360 0 2 -357z"/>
<path d="M4152 1383 l3 -358 355 0 355 0 3 358 2 357 -360 0 -360 0 2 -357z"/>
<path d="M5430 1380 l0 -360 353 0 c195 0 356 2 358 4 2 2 3 164 1 360 l-2
356 -355 0 -355 0 0 -360z"/>
<path d="M6702 1383 l3 -358 358 -3 357 -2 0 360 0 360 -360 0 -360 0 2 -357z"/>
</g>
</svg>
